<svg width="42" height="42" viewBox="0 0 42 42" fill="none" xmlns="http://www.w3.org/2000/svg">
<rect width="42" height="42" rx="12" fill="url(#paint0_linear_23_9)"/>
<g clip-path="url(#clip0_23_9)">
<path d="M28 12H14C12.9 12 12 12.9 12 14V28C12 29.1 12.9 30 14 30H28C29.1 30 30 29.1 30 28V14C30 12.9 29.1 12 28 12ZM22.56 15.53C22.85 15.24 23.33 15.24 23.62 15.53L24.5 16.41L25.38 15.53C25.67 15.24 26.15 15.24 26.44 15.53C26.73 15.82 26.73 16.3 26.44 16.59L25.56 17.47L26.44 18.35C26.73 18.64 26.73 19.12 26.44 19.41C26.15 19.7 25.67 19.7 25.38 19.41L24.5 18.54L23.62 19.42C23.33 19.71 22.85 19.71 22.56 19.42C22.27 19.13 22.27 18.65 22.56 18.36L23.44 17.48L22.56 16.6C22.26 16.3 22.26 15.82 22.56 15.53ZM16 16.72H19.5C19.91 16.72 20.25 17.06 20.25 17.47C20.25 17.88 19.91 18.22 19.5 18.22H16C15.59 18.22 15.25 17.88 15.25 17.47C15.25 17.06 15.59 16.72 16 16.72ZM19.75 25H18.5V26.25C18.5 26.66 18.16 27 17.75 27C17.34 27 17 26.66 17 26.25V25H15.75C15.34 25 15 24.66 15 24.25C15 23.84 15.34 23.5 15.75 23.5H17V22.25C17 21.84 17.34 21.5 17.75 21.5C18.16 21.5 18.5 21.84 18.5 22.25V23.5H19.75C20.16 23.5 20.5 23.84 20.5 24.25C20.5 24.66 20.16 25 19.75 25ZM26.25 26.25H22.75C22.34 26.25 22 25.91 22 25.5C22 25.09 22.34 24.75 22.75 24.75H26.25C26.66 24.75 27 25.09 27 25.5C27 25.91 26.66 26.25 26.25 26.25ZM26.25 23.75H22.75C22.34 23.75 22 23.41 22 23C22 22.59 22.34 22.25 22.75 22.25H26.25C26.66 22.25 27 22.59 27 23C27 23.41 26.66 23.75 26.25 23.75Z" fill="#1A2E44"/>
</g>
<defs>
<linearGradient id="paint0_linear_23_9" x1="41.8142" y1="42" x2="0.18579" y2="-7.10532e-07" gradientUnits="userSpaceOnUse">
<stop stop-color="#F59E0B"/>
<stop offset="1" stop-color="#F97316"/>
</linearGradient>
<clipPath id="clip0_23_9">
<rect width="24" height="24" fill="white" transform="translate(9 9)"/>
</clipPath>
</defs>
</svg>
